<?xml version="1.0" encoding="utf-8"?>
<!-- Generator: Adobe Illustrator 19.2.1, SVG Export Plug-In . SVG Version: 6.00 Build 0)  -->
<svg version="1.1" id="Layer_1" xmlns="http://www.w3.org/2000/svg" xmlns:xlink="http://www.w3.org/1999/xlink" x="0px" y="0px"
	 viewBox="0 0 43.2 43.2" style="enable-background:new 0 0 43.2 43.2;" xml:space="preserve">
<style type="text/css">
	.st0{fill:#919191;}
</style>
<title>close</title>
<path class="st0" d="M21.6,0C9.7,0,0,9.7,0,21.6s9.7,21.6,21.6,21.6s21.6-9.7,21.6-21.6l0,0C43.2,9.7,33.6,0,21.6,0z M21.6,39.5
	c-9.9,0-17.9-8-17.9-17.9c0-9.9,8-17.9,17.9-17.9c9.9,0,17.9,8,17.9,17.9c0,0,0,0,0,0C39.5,31.5,31.5,39.5,21.6,39.5z"/>
<path class="st0" d="M30,13.3c-0.7-0.7-1.9-0.7-2.6,0c0,0,0,0,0,0L21.6,19l-5.8-5.8c-0.7-0.7-1.9-0.7-2.6,0s-0.7,1.9,0,2.6l0,0
	l5.7,5.8l-5.8,5.8c-0.7,0.7-0.7,1.9,0,2.6c0.7,0.7,1.9,0.7,2.6,0l5.7-5.8l5.8,5.8c0.7,0.7,1.9,0.7,2.6,0s0.7-1.9,0-2.6l-5.8-5.8
	l5.8-5.7C30.7,15.2,30.7,14,30,13.3C30,13.3,30,13.3,30,13.3z"/>
</svg>
