<?xml version="1.0" encoding="utf-8"?>
<!-- Generator: Adobe Illustrator 16.0.0, SVG Export Plug-In . SVG Version: 6.00 Build 0)  -->
<!DOCTYPE svg PUBLIC "-//W3C//DTD SVG 1.1//EN" "http://www.w3.org/Graphics/SVG/1.1/DTD/svg11.dtd">
<svg version="1.1" id="Layer_1" xmlns="http://www.w3.org/2000/svg" xmlns:xlink="http://www.w3.org/1999/xlink" x="0px" y="0px"
	 width="211.816px" height="198.088px" viewBox="0 0 211.816 198.088" enable-background="new 0 0 211.816 198.088"
	 xml:space="preserve">
<path fill="#D8AB98" d="M73.812,108.402v19.244c0,8.049-4.093,15.547-10.865,19.9L33.07,158.799l66.469,7.491v-57.888H73.812z"/>
<path fill="#DCB59F" d="M124.538,108.402v19.244c0,8.049,4.161,15.547,11.049,19.9l32.692,11.931l-69.908,6.812v-57.888H124.538z"/>
<path fill="#6B4129" d="M108.199,14.893c0,0,8.175-5.873,12.303-6.325c4.126-0.454,8.963-0.655,10.738,1.479
	c1.773,2.135,20.859,24.391,20.141,29.697c-0.385,2.823-1.57,3.712-1.57,3.712s-1.227-6.65-1.227-1.906s5.012,11.717,5.58,14.685
	c1.7,8.868-6.954,33.577-8.891,35.765l-1.935,2.188c0,0-1.386-4.816-1.746,1.497c-0.234,4.084,0.354,4.657-2.684,8.784
	c-2.59,3.514-12.938,16.487-14.345,13.101C116.569,98.299,106.661,32.379,108.199,14.893"/>
<path fill="#D6B6A2" d="M141.755,61.166c0,0,1.146,9.624,2.479,8.51c1.119-0.937,2.372-12.767,3.197-11.643
	c1.805,2.46,1.031,16.107-0.774,18.793c-1.806,2.684-1.806,5.222-2.063,7.382c-0.258,2.158-3.994,4.577-4.509,2.564
	C139.569,84.76,141.755,61.166,141.755,61.166"/>
<path fill="#D6B6A2" d="M56.789,61.166c0,0-3.871-5.594-5.675-3.132c-1.806,2.46-1.032,16.107,0.774,18.793
	c1.805,2.684,1.805,5.222,2.064,7.382c0.256,2.158,3.994,4.577,4.508,2.564C58.977,84.76,56.789,61.166,56.789,61.166"/>
<path fill="#E0BCA4" d="M99.539,131.449L99.539,131.449c-5.575,0-11-1.693-15.443-4.822l-13.851-9.755
	c-0.524-0.37-1.032-0.76-1.477-1.206c-4.99-4.999-6.87-13.284-8.087-19.972l-3.267-17.786c-0.567-3.085-0.803-6.215-0.708-9.342
	l-0.313-23.859c0.042-1.395,0.232-2.784,0.588-4.139c1.292-4.921,3.272-8.805,3.968-9.897c4.085-6.414,13.924-20.624,38.811-20.624"
	/>
<path fill="#DDB49E" d="M99.578,99.226c0,0-0.839-0.228-3.244-0.587c-2.224-0.333-14.094,4.49-14.094,4.49s8.276,5.13,17.338,4.458"
	/>
<path fill="#613B22" d="M97.848,93.811l-4.738-0.945c-0.863-0.172-1.751-0.058-2.536,0.339c-3.536,1.773-13.686,6.795-14.319,6.44
	c-2.263-1.265,0.846,2.773,2.458,2.126c5.111-2.056,16.45-4.141,19.136-4.391V93.811z"/>
<path fill="#EACCB6" d="M98.413,131.449L98.413,131.449c5.726,0,11.295-1.693,15.86-4.822l14.227-9.755
	c0.535-0.37,1.057-0.76,1.516-1.206c5.124-4.999,7.055-13.284,8.304-19.972l3.356-17.786c0.581-3.085,0.824-6.215,0.727-9.342
	l0.323-23.859c-0.041-1.395-0.239-2.784-0.605-4.139c-1.325-4.921-3.36-8.805-4.073-9.897c-4.195-6.414-14.115-20.624-39.673-20.624
	"/>
<path fill="#DDB49E" d="M99.578,99.226c0,0,0.801-0.228,3.204-0.587c2.225-0.333,14.096,4.49,14.096,4.49s-8.278,5.13-17.339,4.458"
	/>
<path fill="#6B4129" d="M100.621,93.811l4.737-0.945c0.864-0.172,1.749-0.058,2.535,0.339c3.535,1.773,13.686,6.795,14.319,6.44
	c2.264-1.265-0.846,2.773-2.456,2.126c-5.112-2.056-16.452-4.141-19.136-4.391V93.811z"/>
<path fill="#613B22" d="M92.009,58.044c0.681,0,1.47-2.475,0.309-3.403c-1.161-0.926-8.418-2.382-8.418-2.382
	c-1.418-0.378-5.923-0.477-10.024,0.7c0,0-9.064,4.71-8.094,4.342c1.795-0.68,10.053-1.826,10.053-1.826
	c2.221-0.208,4.608-0.415,6.506,0.152C82.341,55.626,91.329,58.044,92.009,58.044"/>
<path fill="#6B4129" d="M106.397,58.044c-0.681,0-1.469-2.475-0.309-3.403c1.16-0.926,8.418-2.382,8.418-2.382
	c1.417-0.378,5.921-0.477,10.022,0.7c0,0,9.064,4.71,8.096,4.342c-1.794-0.68-10.055-1.826-10.055-1.826
	c-2.221-0.208-4.607-0.415-6.504,0.152C116.066,55.626,107.078,58.044,106.397,58.044"/>
<path fill="#613B22" d="M126.041,17.528c0,0-4.414-9.413-7.577-11.445c-3.161-2.034-20.546-7.681-27.555-5.648
	S68.764,9.019,65.602,15.12c-3.164,6.099-8.481,6.55-9.211,9.261c-0.729,2.712-1.182,11.071-3.44,14.008
	c-2.26,2.936-7.229,13.617-5.196,16.635c2.032,3.019-0.452,7.988,0.451,9.796c0.905,1.807,0,16.266,4.745,20.785
	c3.71,3.531,3.627,8.131,1.362,10.616c-2.267,2.485-4.525,4.124-6.106,2.4c-1.581-1.722-3.389,3.068-2.485,4.514
	s5.421,5.061,7.455,2.575c2.033-2.485,8.344,9.06,7.003,11.317c-1.339,2.26,2.04,2.998,6.487,2.916
	c4.444-0.085,4.113,3.373,2.253,5.195c-1.859,1.82,6.248,3.959,4.893-5.756c-0.724-5.182-3.944-9.459-6.792-12.323
	c-2.917-2.931-4.415-6.972-4.224-11.103c0.232-4.977,0.297-11.124-0.583-13.516c-0.688-1.867-1.204-7.621-1.346-14.122
	c-0.185-8.45,0.266-18.165,1.797-22.251c2.712-7.228,2.712-12.651,10.619-17.847c7.908-5.196,22.59-10.167,29.368-8.584
	C109.428,21.219,125.365,19.961,126.041,17.528"/>
<path fill="#131210" d="M66.665,144.48c0,0,1.519,5.847,11.409,12.059c9.894,6.215,21.415,5.424,21.415,5.424l-0.68,36.125
	l-26.663-6.363c-7.955-1.9-65.399-6.158-72.146-10.785l33.071-22.141L66.665,144.48z"/>
<path fill="#1C1917" d="M131.021,144.48c0,0-1.541,5.847-11.593,12.059c-10.055,6.215-21.763,5.424-21.763,5.424l-0.687,36.125
	l28.301-6.517c6.374-1.469,80.855,0.492,86.537-2.703l-44.245-29.391L131.021,144.48z"/>
</svg>
